<?xml version="1.0" encoding="UTF-8" standalone="no"?>
<!-- Created with Inkscape (http://www.inkscape.org/) -->

<svg
   xmlns:dc="http://purl.org/dc/elements/1.1/"
   xmlns:cc="http://creativecommons.org/ns#"
   xmlns:rdf="http://www.w3.org/1999/02/22-rdf-syntax-ns#"
   xmlns:svg="http://www.w3.org/2000/svg"
   xmlns="http://www.w3.org/2000/svg"
   xmlns:sodipodi="http://sodipodi.sourceforge.net/DTD/sodipodi-0.dtd"
   xmlns:inkscape="http://www.inkscape.org/namespaces/inkscape"
   width="512"
   height="512"
   viewBox="0 0 135.46666 135.46666"
   version="1.1"
   id="svg841"
   inkscape:version="0.92.3 (unknown)"
   sodipodi:docname="bg.svg">
  <defs
     id="defs835" />
  <sodipodi:namedview
     id="base"
     pagecolor="#ffffff"
     bordercolor="#666666"
     borderopacity="1.0"
     inkscape:pageopacity="0.0"
     inkscape:pageshadow="2"
     inkscape:zoom="1"
     inkscape:cx="316.15582"
     inkscape:cy="312.73452"
     inkscape:document-units="px"
     inkscape:current-layer="layer1"
     showgrid="true"
     units="px"
     inkscape:window-width="1551"
     inkscape:window-height="876"
     inkscape:window-x="49"
     inkscape:window-y="24"
     inkscape:window-maximized="1"
     showguides="false">
    <inkscape:grid
       type="xygrid"
       id="grid1386" />
  </sodipodi:namedview>
  <metadata
     id="metadata838">
    <rdf:RDF>
      <cc:Work
         rdf:about="">
        <dc:format>image/svg+xml</dc:format>
        <dc:type
           rdf:resource="http://purl.org/dc/dcmitype/StillImage" />
        <dc:title></dc:title>
      </cc:Work>
    </rdf:RDF>
  </metadata>
  <g
     inkscape:label="Layer 1"
     inkscape:groupmode="layer"
     id="layer1"
     transform="translate(0,-161.53334)">
    <rect
       style="opacity:1;fill:#ececec;fill-opacity:1;stroke:none;stroke-width:0.26458332;stroke-linecap:round;stroke-linejoin:round;stroke-miterlimit:4;stroke-dasharray:none;stroke-dashoffset:0;stroke-opacity:1;paint-order:fill markers stroke"
       id="rect821"
       width="2.1166666"
       height="33.866665"
       x="14.816668"
       y="263.13333" />
    <g
       id="g2242">
      <path
         inkscape:connector-curvature="0"
         id="path2184"
         d="m 16.933332,263.13333 c -1.260794,0.36255 -2.825644,0.61983 -3.021228,2.19969 -0.444555,0.99044 -1.005954,1.88512 -1.864574,2.56303 -0.832363,0.74258 -1.495555,1.66209 -1.619391,2.81119 -0.5397927,1.08597 0.195886,2.24563 0.934143,2.72914 0.786209,0.91337 1.922547,1.52857 2.248886,2.78359 0.291059,0.84364 1.655159,1.96305 0.551574,2.69842 -0.530829,0.34135 -1.017243,0.70455 -1.462738,1.1483"
         style="opacity:1;fill:none;fill-opacity:1;stroke:#f2f2f2;stroke-width:1.05833328;stroke-linecap:round;stroke-linejoin:round;stroke-miterlimit:4;stroke-dasharray:none;stroke-dashoffset:0;stroke-opacity:1;paint-order:fill markers stroke" />
      <path
         inkscape:connector-curvature="0"
         id="path2186"
         d="m 12.699999,271.6 c -0.712129,-0.45271 -0.687491,0.15089 0.112803,0.0321 0.51726,0.26031 2.568028,0.70697 1.068575,0.25104 -0.39383,-0.0942 -0.789906,-0.17925 -1.181378,-0.28313 z"
         style="opacity:1;fill:none;fill-opacity:1;stroke:#f2f2f2;stroke-width:1.05833328;stroke-linecap:round;stroke-linejoin:round;stroke-miterlimit:4;stroke-dasharray:none;stroke-dashoffset:0;stroke-opacity:1;paint-order:fill markers stroke" />
      <path
         inkscape:connector-curvature="0"
         id="path2188"
         d="m 8.4666662,271.6 c 0.7773128,-0.656 1.7978348,-1.87936 0.6378905,-2.72258 -1.1195307,-1.39774 -0.981296,-3.43125 -2.2762239,-4.72674 -0.6165062,-0.60216 -1.1243482,-2.86395 -2.1074162,-1.53559 -0.1498058,0.18194 -0.2759293,0.39815 -0.4875835,0.51824"
         style="opacity:1;fill:none;fill-opacity:1;stroke:#f2f2f2;stroke-width:1.05833328;stroke-linecap:round;stroke-linejoin:round;stroke-miterlimit:4;stroke-dasharray:none;stroke-dashoffset:0;stroke-opacity:1;paint-order:fill markers stroke" />
    </g>
    <rect
       style="opacity:1;fill:#ececec;fill-opacity:1;stroke:none;stroke-width:0.26458332;stroke-linecap:round;stroke-linejoin:round;stroke-miterlimit:4;stroke-dasharray:none;stroke-dashoffset:0;stroke-opacity:1;paint-order:fill markers stroke"
       id="rect823"
       width="33.866665"
       height="2.1166666"
       x="0"
       y="277.94998" />
    <rect
       y="263.13333"
       x="31.816162"
       height="33.866665"
       width="2.0505047"
       id="rect834"
       style="opacity:1;fill:#cccccc;fill-opacity:1;stroke:none;stroke-width:0.26041538;stroke-linecap:round;stroke-linejoin:round;stroke-miterlimit:4;stroke-dasharray:none;stroke-dashoffset:0;stroke-opacity:1;paint-order:fill markers stroke" />
    <rect
       y="294.88333"
       x="0"
       height="2.1166656"
       width="33.866665"
       id="rect838"
       style="opacity:1;fill:#cccccc;fill-opacity:1;stroke:none;stroke-width:0.26458326;stroke-linecap:round;stroke-linejoin:round;stroke-miterlimit:4;stroke-dasharray:none;stroke-dashoffset:0;stroke-opacity:1;paint-order:fill markers stroke" />
    <g
       id="g2222">
      <path
         inkscape:connector-curvature="0"
         id="path2176"
         d="m 49.741664,279.00833 c 0.606999,0.17571 1.052065,0.67712 1.496375,1.09994 0.388726,0.45859 0.874909,0.79321 1.36422,1.13248 0.460265,0.48147 1.049715,0.79514 1.475809,1.31586 0.416564,0.39734 0.927959,0.68498 1.399626,1.01545 0.474188,0.44441 1.034096,0.87108 1.600188,1.18309 0.308975,0.39659 1.098056,0.21965 1.259352,0.71881 0.120372,0.3372 0.340719,0.99626 -0.276898,1.03045 -0.652914,0.45952 -1.170489,1.1037 -1.541725,1.77717 -0.33827,0.59558 -0.699441,1.21409 -1.319351,1.55429 -0.460283,0.43756 -0.909175,0.89107 -1.356554,1.3433 -0.116519,0.60233 -0.678236,0.95479 -0.858827,1.53196 -0.06169,0.40669 -0.649145,0.77634 -0.573902,1.00211 -0.321799,0.0631 -0.854796,0.6621 -1.120262,1.05438 -0.218564,0.0446 -0.262082,0.78246 -0.489718,0.11573"
         style="opacity:1;fill:none;fill-opacity:1;stroke:#f2f2f2;stroke-width:1.05833328;stroke-linecap:round;stroke-linejoin:round;stroke-miterlimit:4;stroke-dasharray:none;stroke-dashoffset:0;stroke-opacity:1;paint-order:fill markers stroke" />
      <path
         inkscape:connector-curvature="0"
         id="path2178"
         d="m 49.741664,287.475 c 0.266804,0.85057 0.87378,-0.30104 1.438672,-0.21497 0.643318,-0.26834 1.447699,-0.29152 1.900079,-0.88524 0.426365,-0.41986 0.939534,-0.70956 1.486469,-0.94175 0.527448,-0.50375 1.332276,-0.31257 2.019361,-0.33884 0.612018,0.0423 1.44375,-0.15907 1.835544,0.25566 0.303302,0.36958 0.0684,-0.005 -0.213459,0.008"
         style="opacity:1;fill:none;fill-opacity:1;stroke:#f2f2f2;stroke-width:1.05833328;stroke-linecap:round;stroke-linejoin:round;stroke-miterlimit:4;stroke-dasharray:none;stroke-dashoffset:0;stroke-opacity:1;paint-order:fill markers stroke" />
      <path
         inkscape:connector-curvature="0"
         id="path2180"
         d="m 58.20833,285.35833 c 0.624797,0.51833 1.239715,1.05343 1.781557,1.65973 0.703221,0.29279 1.320926,0.76532 2.067674,0.95105 0.790142,0.29369 1.613859,0.47328 2.426552,0.68334 0.456587,0.24825 0.958689,0.0245 1.422258,0.23115 0.353029,0.15671 0.564743,-0.11114 0.768626,-0.35025"
         style="opacity:1;fill:none;fill-opacity:1;stroke:#f2f2f2;stroke-width:1.05833328;stroke-linecap:round;stroke-linejoin:round;stroke-miterlimit:4;stroke-dasharray:none;stroke-dashoffset:0;stroke-opacity:1;paint-order:fill markers stroke" />
      <path
         inkscape:connector-curvature="0"
         id="path2182"
         d="m 59.266664,285.35833 c 0.62785,0.36213 1.295837,-0.0851 1.902472,-0.25644 -0.290147,-0.0726 0.634016,-0.17736 0.740536,-0.3139 0.61614,-0.41037 1.224838,-0.86515 1.777899,-1.29413 0.643442,-0.15727 1.110125,-0.67026 1.728595,-0.90478 0.439424,-0.0566 1.168679,-0.0949 1.258831,-0.40576"
         style="opacity:1;fill:none;fill-opacity:1;stroke:#f2f2f2;stroke-width:1.05833328;stroke-linecap:round;stroke-linejoin:round;stroke-miterlimit:4;stroke-dasharray:none;stroke-dashoffset:0;stroke-opacity:1;paint-order:fill markers stroke" />
    </g>
    <rect
       y="263.13333"
       x="48.683334"
       height="33.866665"
       width="2.1166666"
       id="rect2013"
       style="opacity:1;fill:#ececec;fill-opacity:1;stroke:none;stroke-width:0.26458332;stroke-linecap:round;stroke-linejoin:round;stroke-miterlimit:4;stroke-dasharray:none;stroke-dashoffset:0;stroke-opacity:1;paint-order:fill markers stroke" />
    <rect
       y="277.94998"
       x="33.866665"
       height="2.1166666"
       width="33.866665"
       id="rect2015"
       style="opacity:1;fill:#ececec;fill-opacity:1;stroke:none;stroke-width:0.26458332;stroke-linecap:round;stroke-linejoin:round;stroke-miterlimit:4;stroke-dasharray:none;stroke-dashoffset:0;stroke-opacity:1;paint-order:fill markers stroke" />
    <rect
       style="opacity:1;fill:#cccccc;fill-opacity:1;stroke:none;stroke-width:0.26041538;stroke-linecap:round;stroke-linejoin:round;stroke-miterlimit:4;stroke-dasharray:none;stroke-dashoffset:0;stroke-opacity:1;paint-order:fill markers stroke"
       id="rect2017"
       width="2.0505047"
       height="33.866665"
       x="65.682831"
       y="263.13333" />
    <rect
       style="opacity:1;fill:#cccccc;fill-opacity:1;stroke:none;stroke-width:0.26458326;stroke-linecap:round;stroke-linejoin:round;stroke-miterlimit:4;stroke-dasharray:none;stroke-dashoffset:0;stroke-opacity:1;paint-order:fill markers stroke"
       id="rect2019"
       width="33.866665"
       height="2.1166656"
       x="33.866665"
       y="294.88333" />
    <rect
       style="opacity:1;fill:#ececec;fill-opacity:1;stroke:none;stroke-width:0.26458332;stroke-linecap:round;stroke-linejoin:round;stroke-miterlimit:4;stroke-dasharray:none;stroke-dashoffset:0;stroke-opacity:1;paint-order:fill markers stroke"
       id="rect2041"
       width="2.1166666"
       height="33.866665"
       x="82.550003"
       y="263.13333" />
    <rect
       style="opacity:1;fill:#ececec;fill-opacity:1;stroke:none;stroke-width:0.26458332;stroke-linecap:round;stroke-linejoin:round;stroke-miterlimit:4;stroke-dasharray:none;stroke-dashoffset:0;stroke-opacity:1;paint-order:fill markers stroke"
       id="rect2043"
       width="33.866665"
       height="2.1166666"
       x="67.73333"
       y="277.94998" />
    <rect
       y="263.13333"
       x="99.5495"
       height="33.866665"
       width="2.0505047"
       id="rect2045"
       style="opacity:1;fill:#cccccc;fill-opacity:1;stroke:none;stroke-width:0.26041538;stroke-linecap:round;stroke-linejoin:round;stroke-miterlimit:4;stroke-dasharray:none;stroke-dashoffset:0;stroke-opacity:1;paint-order:fill markers stroke" />
    <rect
       y="294.88333"
       x="67.73333"
       height="2.1166656"
       width="33.866665"
       id="rect2047"
       style="opacity:1;fill:#cccccc;fill-opacity:1;stroke:none;stroke-width:0.26458326;stroke-linecap:round;stroke-linejoin:round;stroke-miterlimit:4;stroke-dasharray:none;stroke-dashoffset:0;stroke-opacity:1;paint-order:fill markers stroke" />
    <g
       id="g2208">
      <path
         inkscape:connector-curvature="0"
         id="path2192"
         d="m 135.46666,288.53333 c -1.47824,-1.01689 -2.12793,-2.78046 -3.27701,-3.99871 -1.28068,-0.83728 -2.67615,-1.46324 -4.01883,-2.19079 -1.58579,-0.69068 -2.97874,-1.76879 -4.23476,-2.94216 -0.99736,-1.32992 -1.37462,-3.02638 -2.25123,-4.41592 -0.65449,-1.27169 -1.76344,-2.21922 -2.84673,-3.11241 -0.61806,-0.75423 1.41681,-0.81028 2.01103,-0.67739 1.49294,0.54824 2.98902,-0.34582 4.49399,-0.11805 1.32647,-0.36833 2.68801,-0.6781 4.07124,-0.51942 1.62719,-0.31069 3.32243,-0.66929 4.81129,-1.3972 0.6539,-0.4131 0.91395,-1.14452 1.24096,-1.79456"
         style="opacity:1;fill:none;fill-opacity:1;stroke:#f2f2f2;stroke-width:1.05833328;stroke-linecap:round;stroke-linejoin:round;stroke-miterlimit:4;stroke-dasharray:none;stroke-dashoffset:0;stroke-opacity:1;paint-order:fill markers stroke" />
      <path
         inkscape:connector-curvature="0"
         id="path2194"
         d="m 122.76666,280.06667 c 0.42916,-1.50935 1.56249,-2.61053 2.93379,-3.2768 1.10355,-1.05288 2.31974,-1.95276 3.57437,-2.8119 1.63087,-1.31162 2.90236,-3.02856 4.62567,-4.22764 0.3304,-0.82141 1.36503,-1.25612 1.56617,-2.38366"
         style="opacity:1;fill:none;fill-opacity:1;stroke:#f2f2f2;stroke-width:1.05833328;stroke-linecap:round;stroke-linejoin:round;stroke-miterlimit:4;stroke-dasharray:none;stroke-dashoffset:0;stroke-opacity:1;paint-order:fill markers stroke" />
    </g>
    <rect
       y="263.13333"
       x="116.41667"
       height="33.866665"
       width="2.1166666"
       id="rect2049"
       style="opacity:1;fill:#ececec;fill-opacity:1;stroke:none;stroke-width:0.26458332;stroke-linecap:round;stroke-linejoin:round;stroke-miterlimit:4;stroke-dasharray:none;stroke-dashoffset:0;stroke-opacity:1;paint-order:fill markers stroke" />
    <rect
       y="277.94998"
       x="101.6"
       height="2.1166666"
       width="33.866665"
       id="rect2051"
       style="opacity:1;fill:#ececec;fill-opacity:1;stroke:none;stroke-width:0.26458332;stroke-linecap:round;stroke-linejoin:round;stroke-miterlimit:4;stroke-dasharray:none;stroke-dashoffset:0;stroke-opacity:1;paint-order:fill markers stroke" />
    <rect
       style="opacity:1;fill:#cccccc;fill-opacity:1;stroke:none;stroke-width:0.26041538;stroke-linecap:round;stroke-linejoin:round;stroke-miterlimit:4;stroke-dasharray:none;stroke-dashoffset:0;stroke-opacity:1;paint-order:fill markers stroke"
       id="rect2053"
       width="2.0505047"
       height="33.866665"
       x="133.41617"
       y="263.13333" />
    <rect
       style="opacity:1;fill:#cccccc;fill-opacity:1;stroke:none;stroke-width:0.26458326;stroke-linecap:round;stroke-linejoin:round;stroke-miterlimit:4;stroke-dasharray:none;stroke-dashoffset:0;stroke-opacity:1;paint-order:fill markers stroke"
       id="rect2055"
       width="33.866665"
       height="2.1166656"
       x="101.6"
       y="294.88333" />
    <rect
       y="229.26666"
       x="14.816668"
       height="33.866665"
       width="2.1166666"
       id="rect2057"
       style="opacity:1;fill:#ececec;fill-opacity:1;stroke:none;stroke-width:0.26458332;stroke-linecap:round;stroke-linejoin:round;stroke-miterlimit:4;stroke-dasharray:none;stroke-dashoffset:0;stroke-opacity:1;paint-order:fill markers stroke" />
    <rect
       y="244.08331"
       x="0"
       height="2.1166666"
       width="33.866665"
       id="rect2059"
       style="opacity:1;fill:#ececec;fill-opacity:1;stroke:none;stroke-width:0.26458332;stroke-linecap:round;stroke-linejoin:round;stroke-miterlimit:4;stroke-dasharray:none;stroke-dashoffset:0;stroke-opacity:1;paint-order:fill markers stroke" />
    <rect
       style="opacity:1;fill:#cccccc;fill-opacity:1;stroke:none;stroke-width:0.26041538;stroke-linecap:round;stroke-linejoin:round;stroke-miterlimit:4;stroke-dasharray:none;stroke-dashoffset:0;stroke-opacity:1;paint-order:fill markers stroke"
       id="rect2061"
       width="2.0505047"
       height="33.866665"
       x="31.816162"
       y="229.26666" />
    <rect
       style="opacity:1;fill:#cccccc;fill-opacity:1;stroke:none;stroke-width:0.26458326;stroke-linecap:round;stroke-linejoin:round;stroke-miterlimit:4;stroke-dasharray:none;stroke-dashoffset:0;stroke-opacity:1;paint-order:fill markers stroke"
       id="rect2063"
       width="33.866665"
       height="2.1166656"
       x="0"
       y="261.01666" />
    <rect
       style="opacity:1;fill:#ececec;fill-opacity:1;stroke:none;stroke-width:0.26458332;stroke-linecap:round;stroke-linejoin:round;stroke-miterlimit:4;stroke-dasharray:none;stroke-dashoffset:0;stroke-opacity:1;paint-order:fill markers stroke"
       id="rect2065"
       width="2.1166666"
       height="33.866665"
       x="48.683334"
       y="229.26666" />
    <rect
       style="opacity:1;fill:#ececec;fill-opacity:1;stroke:none;stroke-width:0.26458332;stroke-linecap:round;stroke-linejoin:round;stroke-miterlimit:4;stroke-dasharray:none;stroke-dashoffset:0;stroke-opacity:1;paint-order:fill markers stroke"
       id="rect2067"
       width="33.866665"
       height="2.1166666"
       x="33.866665"
       y="244.08331" />
    <path
       style="opacity:1;fill:none;fill-opacity:1;stroke:#f2f2f2;stroke-width:1.05833328;stroke-linecap:round;stroke-linejoin:round;stroke-miterlimit:4;stroke-dasharray:none;stroke-dashoffset:0;stroke-opacity:1;paint-order:fill markers stroke"
       d="m 84.666662,229.26667 c -1.426831,0.63121 -3.094512,0.95424 -4.099356,2.24977 -1.835491,1.14041 -3.152841,2.86494 -4.710775,4.32641 -1.69456,1.44751 -3.159039,3.17831 -4.379921,5.0287 -1.133992,0.93282 -2.36341,1.76344 -3.205992,3.00339 -0.594296,0.67153 -0.668275,1.4842 -0.537287,2.32506"
       id="path2160"
       inkscape:connector-curvature="0" />
    <rect
       y="229.26666"
       x="65.682831"
       height="33.866665"
       width="2.0505047"
       id="rect2069"
       style="opacity:1;fill:#cccccc;fill-opacity:1;stroke:none;stroke-width:0.26041538;stroke-linecap:round;stroke-linejoin:round;stroke-miterlimit:4;stroke-dasharray:none;stroke-dashoffset:0;stroke-opacity:1;paint-order:fill markers stroke" />
    <rect
       y="261.01666"
       x="33.866665"
       height="2.1166656"
       width="33.866665"
       id="rect2071"
       style="opacity:1;fill:#cccccc;fill-opacity:1;stroke:none;stroke-width:0.26458326;stroke-linecap:round;stroke-linejoin:round;stroke-miterlimit:4;stroke-dasharray:none;stroke-dashoffset:0;stroke-opacity:1;paint-order:fill markers stroke" />
    <rect
       y="229.26666"
       x="82.550003"
       height="33.866665"
       width="2.1166666"
       id="rect2073"
       style="opacity:1;fill:#ececec;fill-opacity:1;stroke:none;stroke-width:0.26458332;stroke-linecap:round;stroke-linejoin:round;stroke-miterlimit:4;stroke-dasharray:none;stroke-dashoffset:0;stroke-opacity:1;paint-order:fill markers stroke" />
    <rect
       y="244.08331"
       x="67.73333"
       height="2.1166666"
       width="33.866665"
       id="rect2075"
       style="opacity:1;fill:#ececec;fill-opacity:1;stroke:none;stroke-width:0.26458332;stroke-linecap:round;stroke-linejoin:round;stroke-miterlimit:4;stroke-dasharray:none;stroke-dashoffset:0;stroke-opacity:1;paint-order:fill markers stroke" />
    <rect
       style="opacity:1;fill:#cccccc;fill-opacity:1;stroke:none;stroke-width:0.26041538;stroke-linecap:round;stroke-linejoin:round;stroke-miterlimit:4;stroke-dasharray:none;stroke-dashoffset:0;stroke-opacity:1;paint-order:fill markers stroke"
       id="rect2077"
       width="2.0505047"
       height="33.866665"
       x="99.5495"
       y="229.26666" />
    <rect
       style="opacity:1;fill:#cccccc;fill-opacity:1;stroke:none;stroke-width:0.26458326;stroke-linecap:round;stroke-linejoin:round;stroke-miterlimit:4;stroke-dasharray:none;stroke-dashoffset:0;stroke-opacity:1;paint-order:fill markers stroke"
       id="rect2079"
       width="33.866665"
       height="2.1166656"
       x="67.73333"
       y="261.01666" />
    <rect
       style="opacity:1;fill:#ececec;fill-opacity:1;stroke:none;stroke-width:0.26458332;stroke-linecap:round;stroke-linejoin:round;stroke-miterlimit:4;stroke-dasharray:none;stroke-dashoffset:0;stroke-opacity:1;paint-order:fill markers stroke"
       id="rect2081"
       width="2.1166666"
       height="33.866665"
       x="116.41667"
       y="229.26666" />
    <rect
       style="opacity:1;fill:#ececec;fill-opacity:1;stroke:none;stroke-width:0.26458332;stroke-linecap:round;stroke-linejoin:round;stroke-miterlimit:4;stroke-dasharray:none;stroke-dashoffset:0;stroke-opacity:1;paint-order:fill markers stroke"
       id="rect2083"
       width="33.866665"
       height="2.1166666"
       x="101.6"
       y="244.08331" />
    <rect
       y="229.26666"
       x="133.41617"
       height="33.866665"
       width="2.0505047"
       id="rect2085"
       style="opacity:1;fill:#cccccc;fill-opacity:1;stroke:none;stroke-width:0.26041538;stroke-linecap:round;stroke-linejoin:round;stroke-miterlimit:4;stroke-dasharray:none;stroke-dashoffset:0;stroke-opacity:1;paint-order:fill markers stroke" />
    <rect
       y="261.01666"
       x="101.6"
       height="2.1166656"
       width="33.866665"
       id="rect2087"
       style="opacity:1;fill:#cccccc;fill-opacity:1;stroke:none;stroke-width:0.26458326;stroke-linecap:round;stroke-linejoin:round;stroke-miterlimit:4;stroke-dasharray:none;stroke-dashoffset:0;stroke-opacity:1;paint-order:fill markers stroke" />
    <path
       style="opacity:1;fill:#f2f2f2;fill-opacity:1;stroke:#f2f2f2;stroke-width:1.05833328;stroke-linecap:round;stroke-linejoin:round;stroke-miterlimit:4;stroke-dasharray:none;stroke-dashoffset:0;stroke-opacity:1;paint-order:fill markers stroke"
       d="m 29.633332,178.46667 c -0.222061,0.65175 -0.863819,1.11752 -1.172375,1.67244 -0.213883,0.47124 -0.719398,0.83122 -0.652769,1.17742 -0.406697,0.6383 -0.861101,1.21378 -1.172973,1.97514 -0.623995,0.52095 -0.947911,1.25719 -1.241668,1.99914 -0.106012,0.36539 -0.481185,0.60031 -0.614894,0.79945 0.651984,0.21209 -0.716862,0.2254 -0.605311,0.74757 -0.08827,0.39036 -0.0643,0.60007 -0.433979,0.80825 -0.119824,0.56103 -1.001752,0.88771 -1.112509,1.4303 -0.626983,0.23132 -1.059938,0.86479 -1.308447,1.44762 -0.398994,0.15013 -0.753,0.23402 -0.77707,0.78932 -0.466669,0.13536 -0.858844,0.3993 -1.083961,0.91255 -0.353949,-0.0563 -1.007586,0.13858 -0.592347,0.43205 -0.465935,0.14623 -0.582747,0.55495 -0.855595,0.76967 -0.318916,0.35387 -0.466493,0.41287 -0.986857,0.4139 -0.669742,0.34405 -0.127887,1.01511 -0.08924,1.55851"
       id="path2153"
       inkscape:connector-curvature="0" />
    <path
       style="opacity:1;fill:none;fill-opacity:1;stroke:#f2f2f2;stroke-width:1.05833328;stroke-linecap:round;stroke-linejoin:round;stroke-miterlimit:4;stroke-dasharray:none;stroke-dashoffset:0;stroke-opacity:1;paint-order:fill markers stroke"
       d="m 4.2333331,212.33334 c 0.088194,-0.17639 0.088194,-0.44098 0.2645833,-0.52917 0.1115582,-0.0558 0.176389,0.17639 0.2645834,0.26458 0.088194,0.0882 0.3761414,0.20881 0.2645833,0.26459 -0.2366505,0.11832 -0.9525,-0.21167 -0.79375,0 0.3815876,0.50878 1.0699824,0.68868 1.5874999,1.05833 0.1236213,0.0883 0.7325561,0.67136 0.79375,0.79375 0.039442,0.0789 -0.039442,0.1857 0,0.26458 0.1301787,0.26036 0.9281546,0.79798 1.0583333,1.05834 0.039442,0.0789 -0.039442,0.1857 0,0.26458 0.1137314,0.22746 0.4154352,0.3017 0.5291666,0.52917 0.039442,0.0789 -0.039442,0.1857 0,0.26458 0.1058333,0.21167 0.4233333,0.3175 0.5291667,0.52917 0.039442,0.0789 -0.039442,0.1857 0,0.26458 0.1115581,0.22312 0.4176085,0.30605 0.5291666,0.52917 0.039442,0.0789 -0.039442,0.1857 0,0.26458 0.061261,0.12252 0.9027198,0.90272 1.0583328,1.05833 0.155614,0.15562 0.935811,0.99708 1.058334,1.05834 0.07888,0.0394 0.1857,-0.0394 0.264583,0 0.3175,0.15875 0.47625,0.635 0.79375,0.79375 0.778618,0.3893 -0.348346,-0.61293 0.529167,0.26458 0.877512,0.87751 -0.249452,-0.12472 0.529166,0.26458 0.111558,0.0558 0.153026,0.20881 0.264584,0.26459 0.157767,0.0789 0.371399,-0.0789 0.529166,0 0.111558,0.0558 0.153025,0.2088 0.264584,0.26458 0.104905,0.0524 0.739659,-0.0541 0.79375,0 0.06236,0.0624 -0.06236,0.20222 0,0.26458 0.06236,0.0624 0.176389,0 0.264583,0 0.08819,0 0.208122,0.0678 0.264583,0 0.407144,-0.48857 0.705556,-1.05833 1.058333,-1.5875"
       id="path2190"
       inkscape:connector-curvature="0" />
    <rect
       style="opacity:1;fill:#ececec;fill-opacity:1;stroke:none;stroke-width:0.26458332;stroke-linecap:round;stroke-linejoin:round;stroke-miterlimit:4;stroke-dasharray:none;stroke-dashoffset:0;stroke-opacity:1;paint-order:fill markers stroke"
       id="rect2089"
       width="2.1166666"
       height="33.866665"
       x="14.816668"
       y="195.39999" />
    <g
       id="g2269">
      <path
         inkscape:connector-curvature="0"
         id="path2172"
         d="m 65.616663,194.34167 c 0.237285,-0.72343 -0.367086,-1.02694 -0.789491,-1.45019 -0.542804,-0.412 -0.68482,-0.88333 -1.188333,-1.35417 -0.632992,-0.35815 -1.021121,-1.02748 -1.690708,-1.31258 -0.695936,-0.51432 -1.561351,-0.69449 -2.364774,-0.96107 -0.525144,-0.34569 -1.014152,-0.74905 -1.50468,-1.14292 -0.498733,-0.41974 -0.855207,-0.93574 -1.220711,-1.37849 -0.498621,-0.42162 -1.117529,-0.71188 -1.695498,-1.00708 -0.671205,-0.20934 -1.336877,-0.32055 -2.043167,-0.25747 -0.731448,-0.13227 -1.283662,0.31005 -2.004802,0.36392 -0.461378,0.097 -1.15686,0.46721 -1.506359,0.3534 0.02931,-0.11325 0.106586,-0.20626 0.133528,-0.32056"
         style="opacity:1;fill:none;fill-opacity:1;stroke:#f2f2f2;stroke-width:1.05833328;stroke-linecap:round;stroke-linejoin:round;stroke-miterlimit:4;stroke-dasharray:none;stroke-dashoffset:0;stroke-opacity:1;paint-order:fill markers stroke" />
      <path
         inkscape:connector-curvature="0"
         id="path2174"
         d="m 49.741664,194.34167 c 0.761283,0.34985 0.606609,-0.95144 1.327775,-0.94785 0.62046,-0.21781 1.081179,-0.71905 1.684601,-0.97789 0.429061,-0.2954 0.824588,-0.64589 1.266911,-0.91779 0.487091,-0.31164 0.71397,-0.85419 1.122934,-1.23331 0.608931,-0.36469 0.790686,-0.74368 1.319626,-1.05167 0.393264,-0.18647 1.58398,-0.9549 0.809332,-1.16484 l -0.122877,-0.0566"
         style="opacity:1;fill:none;fill-opacity:1;stroke:#f2f2f2;stroke-width:1.05833328;stroke-linecap:round;stroke-linejoin:round;stroke-miterlimit:4;stroke-dasharray:none;stroke-dashoffset:0;stroke-opacity:1;paint-order:fill markers stroke" />
    </g>
    <g
       id="g2247">
      <path
         style="opacity:1;fill:none;fill-opacity:1;stroke:#f2f2f2;stroke-width:1.05833328;stroke-linecap:round;stroke-linejoin:round;stroke-miterlimit:4;stroke-dasharray:none;stroke-dashoffset:0;stroke-opacity:1;paint-order:fill markers stroke"
         d="m 48.683331,211.275 c -0.636479,-1.23746 -2.107824,-1.65711 -2.958102,-2.71561 -1.069096,-0.98501 -2.391968,-1.65804 -3.335083,-2.7836 -0.742577,-0.83152 -1.012297,-2.01526 -1.873272,-2.77187 -0.470016,-1.02829 -1.75718,-1.52623 -2.045397,-2.55869 0.229368,-1.06096 1.129951,-1.77112 1.684355,-2.6516 0.361545,-0.81992 0.725205,-1.65905 1.17714,-2.44096 0.563308,-0.6741 -0.385351,0.17093 -0.349427,0.17518 l 0.108865,-0.0342 0.182585,-0.0934"
         id="path2166"
         inkscape:connector-curvature="0" />
      <path
         style="opacity:1;fill:none;fill-opacity:1;stroke:#f2f2f2;stroke-width:1.05833328;stroke-linecap:round;stroke-linejoin:round;stroke-miterlimit:4;stroke-dasharray:none;stroke-dashoffset:0;stroke-opacity:1;paint-order:fill markers stroke"
         d="m 38.099998,199.63334 c -0.403809,0.18832 -1.649425,-0.32591 -2.250216,-0.78413 -0.811134,-0.36448 -1.919699,-1.06264 -1.718177,-2.10341 -0.117891,-0.30614 -0.242201,-2.47015 -0.264931,-1.34608"
         id="path2168"
         inkscape:connector-curvature="0" />
      <path
         style="opacity:1;fill:none;fill-opacity:1;stroke:#f2f2f2;stroke-width:1.05833328;stroke-linecap:round;stroke-linejoin:round;stroke-miterlimit:4;stroke-dasharray:none;stroke-dashoffset:0;stroke-opacity:1;paint-order:fill markers stroke"
         d="m 39.158331,199.63334 c 0.648061,1.26729 2.266311,1.37384 3.524896,1.45665 1.279253,0.0735 2.553345,0.17441 3.839551,0.13862 1.289773,0.19382 2.778071,0.17288 3.867273,-0.6289 -0.308803,0.0934 -1.846444,0.45724 -1.663422,0.61949 0.892072,-0.0971 0.210956,0.23624 -0.0433,0.53071"
         id="path2170"
         inkscape:connector-curvature="0" />
    </g>
    <rect
       style="opacity:1;fill:#ececec;fill-opacity:1;stroke:none;stroke-width:0.26458332;stroke-linecap:round;stroke-linejoin:round;stroke-miterlimit:4;stroke-dasharray:none;stroke-dashoffset:0;stroke-opacity:1;paint-order:fill markers stroke"
       id="rect2091"
       width="33.866665"
       height="2.1166666"
       x="0"
       y="210.21664" />
    <rect
       y="195.39999"
       x="31.816162"
       height="33.866665"
       width="2.0505047"
       id="rect2093"
       style="opacity:1;fill:#cccccc;fill-opacity:1;stroke:none;stroke-width:0.26041538;stroke-linecap:round;stroke-linejoin:round;stroke-miterlimit:4;stroke-dasharray:none;stroke-dashoffset:0;stroke-opacity:1;paint-order:fill markers stroke" />
    <rect
       y="227.14999"
       x="0"
       height="2.1166656"
       width="33.866665"
       id="rect2095"
       style="opacity:1;fill:#cccccc;fill-opacity:1;stroke:none;stroke-width:0.26458326;stroke-linecap:round;stroke-linejoin:round;stroke-miterlimit:4;stroke-dasharray:none;stroke-dashoffset:0;stroke-opacity:1;paint-order:fill markers stroke" />
    <rect
       y="195.39999"
       x="48.683334"
       height="33.866665"
       width="2.1166666"
       id="rect2097"
       style="opacity:1;fill:#ececec;fill-opacity:1;stroke:none;stroke-width:0.26458332;stroke-linecap:round;stroke-linejoin:round;stroke-miterlimit:4;stroke-dasharray:none;stroke-dashoffset:0;stroke-opacity:1;paint-order:fill markers stroke" />
    <rect
       y="210.21664"
       x="33.866665"
       height="2.1166666"
       width="33.866665"
       id="rect2099"
       style="opacity:1;fill:#ececec;fill-opacity:1;stroke:none;stroke-width:0.26458332;stroke-linecap:round;stroke-linejoin:round;stroke-miterlimit:4;stroke-dasharray:none;stroke-dashoffset:0;stroke-opacity:1;paint-order:fill markers stroke" />
    <rect
       style="opacity:1;fill:#cccccc;fill-opacity:1;stroke:none;stroke-width:0.26041538;stroke-linecap:round;stroke-linejoin:round;stroke-miterlimit:4;stroke-dasharray:none;stroke-dashoffset:0;stroke-opacity:1;paint-order:fill markers stroke"
       id="rect2101"
       width="2.0505047"
       height="33.866665"
       x="65.682831"
       y="195.39999" />
    <rect
       style="opacity:1;fill:#cccccc;fill-opacity:1;stroke:none;stroke-width:0.26458326;stroke-linecap:round;stroke-linejoin:round;stroke-miterlimit:4;stroke-dasharray:none;stroke-dashoffset:0;stroke-opacity:1;paint-order:fill markers stroke"
       id="rect2103"
       width="33.866665"
       height="2.1166656"
       x="33.866665"
       y="227.14999" />
    <rect
       style="opacity:1;fill:#ececec;fill-opacity:1;stroke:none;stroke-width:0.26458332;stroke-linecap:round;stroke-linejoin:round;stroke-miterlimit:4;stroke-dasharray:none;stroke-dashoffset:0;stroke-opacity:1;paint-order:fill markers stroke"
       id="rect2105"
       width="2.1166666"
       height="33.866665"
       x="82.550003"
       y="195.39999" />
    <path
       style="opacity:1;fill:none;fill-opacity:1;stroke:#f2f2f2;stroke-width:1.05833328;stroke-linecap:round;stroke-linejoin:round;stroke-miterlimit:4;stroke-dasharray:none;stroke-dashoffset:0;stroke-opacity:1;paint-order:fill markers stroke"
       d="m 100.54166,211.275 c 0.28171,-0.97755 0.27315,-1.96528 1.3616,-2.49287 1.38091,-1.08311 3.10692,-1.77272 4.85527,-1.90558 1.72323,0.23723 3.36313,0.96252 4.9839,1.55692 1.56845,0.94687 2.88879,2.37728 4.66954,2.92988 0.31527,0.0159 0.82739,0.18816 1.06301,-0.0881"
       id="path2162"
       inkscape:connector-curvature="0" />
    <rect
       style="opacity:1;fill:#ececec;fill-opacity:1;stroke:none;stroke-width:0.26458332;stroke-linecap:round;stroke-linejoin:round;stroke-miterlimit:4;stroke-dasharray:none;stroke-dashoffset:0;stroke-opacity:1;paint-order:fill markers stroke"
       id="rect2107"
       width="33.866665"
       height="2.1166666"
       x="67.73333"
       y="210.21664" />
    <rect
       y="195.39999"
       x="99.5495"
       height="33.866665"
       width="2.0505047"
       id="rect2109"
       style="opacity:1;fill:#cccccc;fill-opacity:1;stroke:none;stroke-width:0.26041538;stroke-linecap:round;stroke-linejoin:round;stroke-miterlimit:4;stroke-dasharray:none;stroke-dashoffset:0;stroke-opacity:1;paint-order:fill markers stroke" />
    <rect
       y="227.14999"
       x="67.73333"
       height="2.1166656"
       width="33.866665"
       id="rect2111"
       style="opacity:1;fill:#cccccc;fill-opacity:1;stroke:none;stroke-width:0.26458326;stroke-linecap:round;stroke-linejoin:round;stroke-miterlimit:4;stroke-dasharray:none;stroke-dashoffset:0;stroke-opacity:1;paint-order:fill markers stroke" />
    <rect
       y="195.39999"
       x="116.41667"
       height="33.866665"
       width="2.1166666"
       id="rect2113"
       style="opacity:1;fill:#ececec;fill-opacity:1;stroke:none;stroke-width:0.26458332;stroke-linecap:round;stroke-linejoin:round;stroke-miterlimit:4;stroke-dasharray:none;stroke-dashoffset:0;stroke-opacity:1;paint-order:fill markers stroke" />
    <rect
       y="210.21664"
       x="101.6"
       height="2.1166666"
       width="33.866665"
       id="rect2115"
       style="opacity:1;fill:#ececec;fill-opacity:1;stroke:none;stroke-width:0.26458332;stroke-linecap:round;stroke-linejoin:round;stroke-miterlimit:4;stroke-dasharray:none;stroke-dashoffset:0;stroke-opacity:1;paint-order:fill markers stroke" />
    <rect
       style="opacity:1;fill:#cccccc;fill-opacity:1;stroke:none;stroke-width:0.26041538;stroke-linecap:round;stroke-linejoin:round;stroke-miterlimit:4;stroke-dasharray:none;stroke-dashoffset:0;stroke-opacity:1;paint-order:fill markers stroke"
       id="rect2117"
       width="2.0505047"
       height="33.866665"
       x="133.41617"
       y="195.39999" />
    <rect
       style="opacity:1;fill:#cccccc;fill-opacity:1;stroke:none;stroke-width:0.26458326;stroke-linecap:round;stroke-linejoin:round;stroke-miterlimit:4;stroke-dasharray:none;stroke-dashoffset:0;stroke-opacity:1;paint-order:fill markers stroke"
       id="rect2119"
       width="33.866665"
       height="2.1166656"
       x="101.6"
       y="227.14999" />
    <rect
       y="161.53333"
       x="14.816668"
       height="33.866665"
       width="2.1166666"
       id="rect2121"
       style="opacity:1;fill:#ececec;fill-opacity:1;stroke:none;stroke-width:0.26458332;stroke-linecap:round;stroke-linejoin:round;stroke-miterlimit:4;stroke-dasharray:none;stroke-dashoffset:0;stroke-opacity:1;paint-order:fill markers stroke" />
    <rect
       y="176.34998"
       x="0"
       height="2.1166666"
       width="33.866665"
       id="rect2123"
       style="opacity:1;fill:#ececec;fill-opacity:1;stroke:none;stroke-width:0.26458332;stroke-linecap:round;stroke-linejoin:round;stroke-miterlimit:4;stroke-dasharray:none;stroke-dashoffset:0;stroke-opacity:1;paint-order:fill markers stroke" />
    <rect
       style="opacity:1;fill:#cccccc;fill-opacity:1;stroke:none;stroke-width:0.26041538;stroke-linecap:round;stroke-linejoin:round;stroke-miterlimit:4;stroke-dasharray:none;stroke-dashoffset:0;stroke-opacity:1;paint-order:fill markers stroke"
       id="rect2125"
       width="2.0505047"
       height="33.866665"
       x="31.816162"
       y="161.53333" />
    <rect
       style="opacity:1;fill:#cccccc;fill-opacity:1;stroke:none;stroke-width:0.26458326;stroke-linecap:round;stroke-linejoin:round;stroke-miterlimit:4;stroke-dasharray:none;stroke-dashoffset:0;stroke-opacity:1;paint-order:fill markers stroke"
       id="rect2127"
       width="33.866665"
       height="2.1166656"
       x="0"
       y="193.28333" />
    <rect
       style="opacity:1;fill:#ececec;fill-opacity:1;stroke:none;stroke-width:0.26458332;stroke-linecap:round;stroke-linejoin:round;stroke-miterlimit:4;stroke-dasharray:none;stroke-dashoffset:0;stroke-opacity:1;paint-order:fill markers stroke"
       id="rect2129"
       width="2.1166666"
       height="33.866665"
       x="48.683334"
       y="161.53333" />
    <path
       style="opacity:1;fill:none;fill-opacity:1;stroke:#f2f2f2;stroke-width:1.05833328;stroke-linecap:round;stroke-linejoin:round;stroke-miterlimit:4;stroke-dasharray:none;stroke-dashoffset:0;stroke-opacity:1;paint-order:fill markers stroke"
       d="m 67.73333,178.46667 c 1.200569,-0.54698 2.208424,0.86618 3.059874,1.49251 1.02412,1.17818 2.648141,1.48997 4.094935,1.84052 1.261735,0.38462 2.567621,0.41674 3.87657,0.3836 1.057922,0.0649 2.109575,-0.30631 3.134846,-0.41353 0.870048,-0.29569 2.220793,-0.51912 2.309197,-1.6447 0.02074,-0.62268 -0.892763,-2.1334 0.457915,-1.65862"
       id="path2158"
       inkscape:connector-curvature="0" />
    <rect
       style="opacity:1;fill:#ececec;fill-opacity:1;stroke:none;stroke-width:0.26458332;stroke-linecap:round;stroke-linejoin:round;stroke-miterlimit:4;stroke-dasharray:none;stroke-dashoffset:0;stroke-opacity:1;paint-order:fill markers stroke"
       id="rect2131"
       width="33.866665"
       height="2.1166666"
       x="33.866665"
       y="176.34998" />
    <rect
       y="161.53333"
       x="65.682831"
       height="33.866665"
       width="2.0505047"
       id="rect2133"
       style="opacity:1;fill:#cccccc;fill-opacity:1;stroke:none;stroke-width:0.26041538;stroke-linecap:round;stroke-linejoin:round;stroke-miterlimit:4;stroke-dasharray:none;stroke-dashoffset:0;stroke-opacity:1;paint-order:fill markers stroke" />
    <rect
       y="193.28333"
       x="33.866665"
       height="2.1166656"
       width="33.866665"
       id="rect2135"
       style="opacity:1;fill:#cccccc;fill-opacity:1;stroke:none;stroke-width:0.26458326;stroke-linecap:round;stroke-linejoin:round;stroke-miterlimit:4;stroke-dasharray:none;stroke-dashoffset:0;stroke-opacity:1;paint-order:fill markers stroke" />
    <rect
       y="161.53333"
       x="82.550003"
       height="33.866665"
       width="2.1166666"
       id="rect2137"
       style="opacity:1;fill:#ececec;fill-opacity:1;stroke:none;stroke-width:0.26458332;stroke-linecap:round;stroke-linejoin:round;stroke-miterlimit:4;stroke-dasharray:none;stroke-dashoffset:0;stroke-opacity:1;paint-order:fill markers stroke" />
    <rect
       y="176.34998"
       x="67.73333"
       height="2.1166666"
       width="33.866665"
       id="rect2139"
       style="opacity:1;fill:#ececec;fill-opacity:1;stroke:none;stroke-width:0.26458332;stroke-linecap:round;stroke-linejoin:round;stroke-miterlimit:4;stroke-dasharray:none;stroke-dashoffset:0;stroke-opacity:1;paint-order:fill markers stroke" />
    <rect
       style="opacity:1;fill:#cccccc;fill-opacity:1;stroke:none;stroke-width:0.26041538;stroke-linecap:round;stroke-linejoin:round;stroke-miterlimit:4;stroke-dasharray:none;stroke-dashoffset:0;stroke-opacity:1;paint-order:fill markers stroke"
       id="rect2141"
       width="2.0505047"
       height="33.866665"
       x="99.5495"
       y="161.53333" />
    <rect
       style="opacity:1;fill:#cccccc;fill-opacity:1;stroke:none;stroke-width:0.26458326;stroke-linecap:round;stroke-linejoin:round;stroke-miterlimit:4;stroke-dasharray:none;stroke-dashoffset:0;stroke-opacity:1;paint-order:fill markers stroke"
       id="rect2143"
       width="33.866665"
       height="2.1166656"
       x="67.73333"
       y="193.28333" />
    <rect
       style="opacity:1;fill:#ececec;fill-opacity:1;stroke:none;stroke-width:0.26458332;stroke-linecap:round;stroke-linejoin:round;stroke-miterlimit:4;stroke-dasharray:none;stroke-dashoffset:0;stroke-opacity:1;paint-order:fill markers stroke"
       id="rect2145"
       width="2.1166666"
       height="33.866665"
       x="116.41667"
       y="161.53333" />
    <rect
       style="opacity:1;fill:#ececec;fill-opacity:1;stroke:none;stroke-width:0.26458332;stroke-linecap:round;stroke-linejoin:round;stroke-miterlimit:4;stroke-dasharray:none;stroke-dashoffset:0;stroke-opacity:1;paint-order:fill markers stroke"
       id="rect2147"
       width="33.866665"
       height="2.1166666"
       x="101.6"
       y="176.34998" />
    <rect
       y="161.53333"
       x="133.41617"
       height="33.866665"
       width="2.0505047"
       id="rect2149"
       style="opacity:1;fill:#cccccc;fill-opacity:1;stroke:none;stroke-width:0.26041538;stroke-linecap:round;stroke-linejoin:round;stroke-miterlimit:4;stroke-dasharray:none;stroke-dashoffset:0;stroke-opacity:1;paint-order:fill markers stroke" />
    <rect
       y="193.28333"
       x="101.6"
       height="2.1166656"
       width="33.866665"
       id="rect2151"
       style="opacity:1;fill:#cccccc;fill-opacity:1;stroke:none;stroke-width:0.26458326;stroke-linecap:round;stroke-linejoin:round;stroke-miterlimit:4;stroke-dasharray:none;stroke-dashoffset:0;stroke-opacity:1;paint-order:fill markers stroke" />
    <path
       style="opacity:1;fill:none;fill-opacity:1;stroke:#f2f2f2;stroke-width:1.05833328;stroke-linecap:round;stroke-linejoin:round;stroke-miterlimit:4;stroke-dasharray:none;stroke-dashoffset:0;stroke-opacity:1;paint-order:fill markers stroke"
       d="m 48.683331,228.20834 c -0.07818,0.46697 -0.7693,0.80525 -1.058333,1.19062 -0.0954,0.1272 -0.182782,0.26054 -0.264584,0.39688 -0.05073,0.0846 -0.07313,0.1857 -0.132291,0.26458 -0.07483,0.0998 -0.200412,0.15763 -0.264584,0.26458 -0.07174,0.11958 -0.0805,0.2674 -0.132291,0.39688 -0.1001,0.25024 -0.164484,0.27892 -0.264584,0.52916 -0.107569,0.26892 -0.10946,0.42878 -0.264583,0.66146 -0.08141,0.12212 -0.183174,0.14247 -0.264583,0.26459 -0.479597,0.95919 0.139448,-0.20918 -0.264584,0.39687 -0.109392,0.16409 -0.155191,0.36508 -0.264583,0.52917 -0.161372,0.24206 -0.168664,0.0132 -0.264583,0.39687 -0.02138,0.0856 0.0173,0.1781 0,0.26459 -0.02735,0.13674 -0.104945,0.26013 -0.132292,0.39687 -0.0173,0.0865 0.02138,0.17902 0,0.26458 -0.02392,0.0957 -0.10111,0.17104 -0.132292,0.26459 -0.03913,0.1174 0.04331,0.57483 0,0.66146 -0.02789,0.0558 -0.104402,0.0765 -0.132291,0.13229 -0.02014,0.0403 0,0.33729 0,0.39687 0,0.26459 0,0.52917 0,0.79375 0,0.0314 -0.01482,0.49952 0,0.52917 0.03533,0.0707 0.327228,0.32723 0.396875,0.39687 0.10333,0.10333 0.28272,0.32078 0.396875,0.39688 0.192786,0.12852 0.275545,0.0826 0.396875,0.26458 0.155122,0.23269 0.157014,0.39254 0.264583,0.66146 0.07324,0.18311 0.191341,0.34606 0.264583,0.52917 0.107569,0.26892 0.109461,0.42877 0.264584,0.66146 0.06919,0.10377 0.195397,0.1608 0.264583,0.26458 0.0441,0.0882 0.08819,0.17639 0.132292,0.26458 0,0.0441 -0.01971,0.0928 0,0.13229 0.05578,0.11156 0.208803,0.15303 0.264583,0.26459 0.01971,0.0394 -0.01971,0.0928 0,0.13229 0.07937,0.15875 0.3175,0.23812 0.396875,0.39687 0.01971,0.0394 -0.01971,0.0928 0,0.1323 0.02789,0.0558 0.104402,0.0765 0.132292,0.13229 0.01971,0.0394 -0.01971,0.0928 0,0.13229 0.02789,0.0558 0.104402,0.0765 0.132291,0.13229 0.01971,0.0394 -0.01971,0.0928 0,0.13229 0.04213,0.0843 0.557509,0.55751 0.661459,0.66146 0.0441,0.0441 0.104401,0.0765 0.132291,0.13229 0.01971,0.0394 -0.03118,0.10111 0,0.13229 0.03118,0.0312 0.09285,-0.0197 0.132292,0 0.02532,0.0127 0.516504,0.50385 0.529166,0.52917 0.01971,0.0394 -0.03118,0.10111 0,0.13229 0.03118,0.0312 0.101111,-0.0312 0.132292,0 0.03118,0.0312 -0.03118,0.10111 0,0.13229 0.03118,0.0312 0.101111,-0.0312 0.132292,0 0.03118,0.0312 -0.03118,0.10111 0,0.1323 0.03118,0.0312 0.10111,-0.0312 0.132291,0 0.03118,0.0312 0.0441,0.13229 0,0.13229 -0.0986,0 -0.176389,-0.0882 -0.264583,-0.13229"
       id="path2164"
       inkscape:connector-curvature="0" />
  </g>
</svg>
